<svg width="321" height="319" viewBox="0 0 321 319" fill="none" xmlns="http://www.w3.org/2000/svg">
<path d="M183.598 48.0314C258.761 51.1885 318.537 110.054 318.537 182.069C318.537 254.085 258.76 312.968 183.598 316.107V231.795C209.588 228.839 229.864 207.784 229.864 182.088C229.864 156.39 209.568 135.355 183.598 132.382V48.0314Z" stroke="white" stroke-width="4"/>
<path d="M136.939 86.7793C110.962 89.7661 90.6729 110.898 90.6729 136.699C90.6729 162.498 110.942 183.651 136.939 186.62V271.325C61.7852 268.172 2 209.03 2 136.68C2.00014 64.3299 61.7845 5.22443 136.939 2.07227V86.7793Z" stroke="white" stroke-width="4"/>
<path d="M179.597 46.3691V129.278L140.94 87.9736V5.0625L179.597 46.3691Z" stroke="white" stroke-width="4"/>
<path d="M179.597 230.988V313.147L140.94 272.206V190.047L179.597 230.988Z" stroke="white" stroke-width="4"/>
</svg>
