<svg width="1017" height="321" viewBox="0 0 1017 321" fill="none" xmlns="http://www.w3.org/2000/svg">
<path d="M182.333 231.96V319.088L140.386 274.661V187.532L182.333 231.96Z" fill="#FF8C00" stroke="white"/>
<path d="M182.834 46.3106V135.106C208.913 137.211 229.416 157.991 229.416 183.328C229.416 208.665 208.933 229.464 182.834 231.55V320.345C260.47 318.163 322.72 257.659 322.72 183.309C322.72 108.958 260.47 48.4735 182.834 46.272V46.3106Z" fill="white"/>
<path d="M139.886 0V89.1928C113.807 91.3072 93.3037 112.18 93.3037 137.63C93.3037 163.08 113.787 183.972 139.886 186.067V275.26C62.2491 273.068 0 212.293 0 137.611C0 62.9276 62.2491 2.19199 139.886 0Z" fill="white"/>
<path d="M182.333 46.0859V133.99L140.386 89.1699V1.26562L182.333 46.0859Z" fill="#FF8C00" stroke="white"/>
<path d="M933.266 118.793H958.285L960.28 129.853C964.631 125.018 969.164 121.452 973.877 119.156C978.712 116.738 984.151 115.53 990.195 115.53C998.535 115.53 1005 118.068 1009.59 123.144C1014.31 128.221 1016.66 135.292 1016.66 144.357V215.065H988.019V152.697C988.019 146.653 987.354 142.483 986.025 140.187C984.695 137.89 982.278 136.742 978.773 136.742C975.872 136.742 973.031 137.709 970.251 139.643C967.592 141.456 964.812 144.176 961.911 147.802V215.065H933.266V118.793Z" fill="white"/>
<path d="M866.072 68.3914C871.028 68.3914 875.077 69.9626 878.219 73.1052C881.362 76.1269 882.933 79.9343 882.933 84.5273C882.933 89.2411 881.362 93.1089 878.219 96.1306C875.077 99.1524 871.028 100.663 866.072 100.663C861.116 100.663 857.007 99.1524 853.743 96.1306C850.601 92.9881 849.03 89.1203 849.03 84.5273C849.03 79.9343 850.601 76.1269 853.743 73.1052C857.007 69.9626 861.116 68.3914 866.072 68.3914ZM883.296 195.484H907.953V215.065H827.455V195.484H854.65V138.374H828.361V118.793H883.296V195.484Z" fill="white"/>
<path d="M807.945 124.413C801.66 126.952 792.413 128.221 780.206 128.221C786.491 131.001 791.144 134.325 794.166 138.192C797.309 142.06 798.88 147.016 798.88 153.059C798.88 159.224 797.188 164.783 793.803 169.739C790.419 174.574 785.645 178.381 779.48 181.161C773.316 183.941 766.185 185.331 758.087 185.331C754.098 185.331 750.351 184.968 746.846 184.243C745.879 184.727 745.093 185.512 744.489 186.6C744.006 187.567 743.764 188.595 743.764 189.682C743.764 191.495 744.429 192.946 745.758 194.034C747.209 195.001 750.049 195.484 754.279 195.484H770.234C777.486 195.484 783.892 196.693 789.452 199.11C795.012 201.527 799.303 204.851 802.325 209.082C805.346 213.312 806.857 218.086 806.857 223.405C806.857 233.437 802.445 241.233 793.622 246.793C784.919 252.473 772.168 255.314 755.367 255.314C743.401 255.314 733.973 254.045 727.084 251.506C720.315 249.089 715.541 245.644 712.761 241.172C710.102 236.7 708.772 231.08 708.772 224.311H734.155C734.155 227.333 734.699 229.69 735.787 231.382C736.995 233.074 739.171 234.343 742.313 235.189C745.456 236.035 750.049 236.458 756.092 236.458C764.553 236.458 770.355 235.491 773.497 233.558C776.761 231.624 778.393 228.904 778.393 225.399C778.393 222.498 777.184 220.141 774.767 218.328C772.47 216.636 769.025 215.79 764.432 215.79H749.203C739.292 215.79 731.858 214.037 726.903 210.532C721.947 206.906 719.469 202.313 719.469 196.753C719.469 193.127 720.376 189.743 722.189 186.6C724.123 183.337 726.782 180.617 730.166 178.442C724.123 175.178 719.771 171.371 717.112 167.02C714.453 162.547 713.124 157.169 713.124 150.884C713.124 143.752 714.937 137.528 718.563 132.209C722.189 126.891 727.265 122.842 733.792 120.062C740.319 117.161 747.752 115.711 756.092 115.711C765.762 115.953 773.981 115.046 780.75 112.991C787.518 110.816 794.408 107.613 801.418 103.382L807.945 124.413ZM756.818 134.385C752.225 134.385 748.599 135.835 745.939 138.736C743.401 141.637 742.132 145.565 742.132 150.521C742.132 155.718 743.462 159.767 746.121 162.668C748.78 165.569 752.346 167.02 756.818 167.02C761.531 167.02 765.158 165.63 767.696 162.85C770.234 159.949 771.503 155.718 771.503 150.158C771.503 139.643 766.608 134.385 756.818 134.385Z" fill="white"/>
<path d="M648.651 68.3914C653.606 68.3914 657.655 69.9626 660.798 73.1052C663.94 76.1269 665.512 79.9343 665.512 84.5273C665.512 89.2411 663.94 93.1089 660.798 96.1306C657.655 99.1524 653.606 100.663 648.651 100.663C643.695 100.663 639.586 99.1524 636.322 96.1306C633.179 92.9881 631.608 89.1203 631.608 84.5273C631.608 79.9343 633.179 76.1269 636.322 73.1052C639.586 69.9626 643.695 68.3914 648.651 68.3914ZM665.874 195.484H690.532V215.065H610.033V195.484H637.229V138.374H610.94V118.793H665.874V195.484Z" fill="white"/>
<path d="M571.85 115.892C577.652 115.892 582.97 116.859 587.805 118.793L582.547 159.042H564.417V141.274C559.099 142.241 554.385 145.142 550.275 149.977C546.166 154.812 542.963 160.916 540.666 168.289V195.847H559.703V215.065H499.329V195.847H512.02V137.83H499.329V118.793H533.958L539.034 140.368C542.54 132.149 546.951 126.045 552.269 122.056C557.588 117.947 564.115 115.892 571.85 115.892Z" fill="white"/>
<path d="M481.632 152.153C481.632 172.579 477.281 188.715 468.578 200.56C459.997 212.285 447.608 218.147 431.411 218.147C415.094 218.147 402.645 212.345 394.063 200.742C385.481 189.017 381.19 172.821 381.19 152.153C381.19 131.726 385.481 115.65 394.063 103.926C402.765 92.081 415.215 86.1584 431.411 86.1584C447.728 86.1584 460.178 92.0206 468.76 103.745C477.341 115.348 481.632 131.484 481.632 152.153ZM451.173 152.153C451.173 136.681 449.602 125.441 446.459 118.43C443.438 111.42 438.422 107.915 431.411 107.915C424.401 107.915 419.324 111.42 416.182 118.43C413.16 125.441 411.649 136.681 411.649 152.153C411.649 167.624 413.16 178.864 416.182 185.875C419.324 192.885 424.401 196.39 431.411 196.39C438.542 196.39 443.619 192.885 446.641 185.875C449.662 178.864 451.173 167.624 451.173 152.153Z" fill="white"/>
</svg>
