<svg width="1029" height="321" viewBox="0 0 1029 321" fill="none" xmlns="http://www.w3.org/2000/svg">
<path d="M184.834 48.3442C260.522 51.5164 320.72 110.791 320.72 183.309C320.72 255.827 260.521 315.119 184.834 318.273V233.362C211.001 230.392 231.416 209.195 231.416 183.328C231.416 157.458 210.981 136.283 184.834 133.295V48.3442Z" stroke="white" stroke-width="4"/>
<path d="M137.886 87.3818C111.732 90.3829 91.3038 111.657 91.3037 137.63C91.3037 163.601 111.711 184.894 137.886 187.878V273.187C62.2063 270.019 2 210.466 2 137.61C2.00011 64.7554 62.2056 5.23921 137.886 2.07227V87.3818Z" stroke="white" stroke-width="4"/>
<path d="M181.333 46.4805V131.458L141.386 88.7754V3.79688L181.333 46.4805Z" stroke="white" stroke-width="3"/>
<path d="M181.333 232.358V316.572L141.386 274.262V190.048L181.333 232.358Z" stroke="white" stroke-width="3"/>
<path d="M998.004 112.138C1006.78 112.138 1013.83 114.826 1018.89 120.411H1018.89C1024.03 125.958 1026.47 133.566 1026.47 142.966V215.674H993.828V151.305C993.828 145.271 993.141 141.589 992.104 139.798C991.246 138.316 989.635 137.35 986.582 137.35C984.155 137.35 981.705 138.153 979.203 139.893L979.195 139.899L979.188 139.904C976.874 141.481 974.382 143.864 971.721 147.119V215.674H939.075V115.402H967.767L968.063 117.047L969.361 124.248C973.016 120.679 976.83 117.906 980.811 115.967C985.95 113.401 991.695 112.138 998.004 112.138Z" stroke="white" stroke-width="4"/>
<path d="M893.105 115.402V192.093H917.762V215.674H833.264V192.093H860.459V138.982H834.17V115.402H893.105ZM873.881 65C879.286 65 883.856 66.7289 887.415 70.2725H887.416C890.973 73.6932 892.743 78.0315 892.743 83.1357C892.743 88.3444 890.984 92.7492 887.416 96.1807C883.849 99.6103 879.277 101.271 873.881 101.271C868.484 101.271 863.87 99.6111 860.194 96.207L860.166 96.1807L860.139 96.1533C856.608 92.6219 854.839 88.2393 854.839 83.1357C854.839 78.0315 856.609 73.6932 860.167 70.2725C863.839 66.7364 868.462 65 873.881 65Z" stroke="white" stroke-width="4"/>
<path d="M811.138 101.398L817.665 122.429L818.21 124.187L816.504 124.877C811.316 126.972 804.354 128.204 795.698 128.644C798.901 130.692 801.524 132.984 803.527 135.54C807.017 139.835 808.689 145.266 808.689 151.668C808.689 158.223 806.882 164.178 803.265 169.475L803.251 169.495C799.632 174.665 794.556 178.687 788.112 181.593C781.644 184.51 774.223 185.94 765.896 185.94C762.082 185.94 758.462 185.617 755.041 184.967C754.691 185.242 754.364 185.62 754.069 186.14C753.738 186.817 753.573 187.526 753.573 188.291C753.573 189.5 753.97 190.351 754.752 191.024C755.158 191.271 755.898 191.55 757.121 191.759C758.392 191.975 760.039 192.093 762.089 192.093H778.044C785.517 192.093 792.204 193.339 798.06 195.885C803.896 198.422 808.497 201.957 811.762 206.528C815.032 211.106 816.667 216.289 816.667 222.013C816.667 232.765 811.875 241.185 802.498 247.094L802.497 247.093C793.327 253.067 780.132 255.923 763.177 255.923C751.115 255.923 741.425 254.649 734.221 251.999L733.566 251.76C726.857 249.253 721.868 245.656 718.872 240.837L718.861 240.82L718.852 240.803C715.961 235.942 714.582 229.942 714.582 222.92V220.92H743.965V222.92C743.965 225.704 744.466 227.616 745.25 228.863C746.083 230.004 747.739 231.085 750.643 231.867C753.528 232.644 757.912 233.067 763.902 233.067C768.066 233.067 771.514 232.828 774.271 232.369C777.05 231.906 778.999 231.238 780.259 230.463L780.273 230.454L780.287 230.446C783.003 228.836 784.202 226.739 784.202 224.008C784.202 221.766 783.314 219.991 781.376 218.537H781.375C779.574 217.217 776.636 216.398 772.242 216.398H757.013C746.927 216.398 739.004 214.626 733.558 210.773L733.544 210.764L733.531 210.755C728.123 206.798 725.279 201.633 725.279 195.362C725.279 191.385 726.278 187.656 728.266 184.21L728.271 184.199L728.277 184.189C729.852 181.531 731.867 179.214 734.306 177.237C729.408 174.204 725.675 170.695 723.216 166.671L723.209 166.661L723.203 166.65C720.325 161.81 718.934 156.062 718.934 149.492C718.934 142.004 720.843 135.377 724.72 129.691C728.583 124.025 733.977 119.745 740.818 116.831C747.633 113.807 755.341 112.319 763.902 112.319H763.927L763.952 112.32C773.473 112.558 781.46 111.661 787.962 109.69C794.558 107.569 801.302 104.438 808.194 100.279L810.381 98.9587L811.138 101.398ZM764.627 134.994C760.5 134.994 757.45 136.274 755.235 138.683C753.11 141.124 751.941 144.53 751.941 149.13C751.941 153.991 753.18 157.499 755.404 159.926C757.631 162.355 760.631 163.628 764.627 163.628C768.918 163.628 771.941 162.381 774.009 160.13C776.106 157.726 777.312 154.046 777.312 148.767C777.312 143.784 776.15 140.418 774.178 138.3C772.231 136.208 769.176 134.994 764.627 134.994Z" stroke="white" stroke-width="4"/>
<path d="M675.684 115.402V192.093H700.341V215.674H615.843V192.093H643.038V138.982H616.749V115.402H675.684ZM656.46 65C661.865 65 666.435 66.7289 669.993 70.2725H669.994C673.551 73.6932 675.321 78.0315 675.321 83.1357C675.321 88.3443 673.563 92.7492 669.994 96.1807C666.427 99.6103 661.856 101.271 656.46 101.271C651.063 101.271 646.449 99.6111 642.772 96.207L642.744 96.1807L642.718 96.1533C639.186 92.6219 637.418 88.2393 637.418 83.1357C637.418 78.0315 639.188 73.6932 642.745 70.2725C646.418 66.7364 651.041 65.0001 656.46 65Z" stroke="white" stroke-width="4"/>
<path d="M579.66 112.501C585.687 112.501 591.261 113.506 596.357 115.545L597.799 116.121L597.598 117.661L592.34 157.91L592.112 159.651H570.227V142.433C566.367 143.647 562.828 146.093 559.608 149.881C555.758 154.41 552.702 160.168 550.476 167.21V192.455H569.513V215.674H505.139V192.455H517.83V138.438H505.139V115.401H543.352L543.714 116.943L547.488 132.985C550.522 127.304 554.131 122.775 558.35 119.47L558.879 119.065C564.595 114.657 571.563 112.501 579.66 112.501Z" stroke="white" stroke-width="4"/>
<path d="M439.221 82.7671C456.082 82.7671 469.168 88.8622 478.177 101.165L478.592 101.733C487.237 113.752 491.441 130.17 491.441 150.761C491.441 171.452 487.036 188.054 478 200.353C468.994 212.655 455.969 218.755 439.221 218.755C422.628 218.755 409.686 212.912 400.689 201.106L400.259 200.532C391.34 188.347 387 171.681 387 150.761C387 130.077 391.343 113.534 400.259 101.353L400.261 101.35C409.382 88.9347 422.463 82.7671 439.221 82.7671ZM439.221 108.523C436.064 108.523 433.452 109.307 431.292 110.798C429.124 112.295 427.28 114.597 425.823 117.841C422.975 124.458 421.459 135.348 421.459 150.761C421.459 166.173 422.975 177.064 425.823 183.68C427.28 186.925 429.124 189.227 431.292 190.724C433.452 192.215 436.064 192.999 439.221 193C442.446 193 445.086 192.212 447.24 190.724C449.404 189.23 451.216 186.934 452.613 183.692C455.465 177.077 456.982 166.182 456.982 150.761C456.982 135.344 455.405 124.461 452.444 117.857L452.438 117.844L452.433 117.831C451.033 114.583 449.231 112.284 447.095 110.792C444.97 109.307 442.378 108.523 439.221 108.523Z" stroke="white" stroke-width="4"/>
</svg>
