<svg width="303" height="97" viewBox="0 0 303 97" fill="none" xmlns="http://www.w3.org/2000/svg">
<path d="M292.988 33.4441C295.684 33.4441 297.878 34.2718 299.453 36.0115H299.452C301.05 37.7364 301.8 40.0916 301.8 42.9695V65.1707H291.53V45.4929C291.53 43.6678 291.319 42.6013 291.034 42.1082C290.82 41.739 290.411 41.4646 289.531 41.4646C288.842 41.4647 288.139 41.6909 287.409 42.199L287.403 42.2029C286.735 42.658 286.01 43.3482 285.228 44.2966V65.1707H274.958V34.4314H283.999L284.118 35.0896L284.446 36.9128C285.485 35.9406 286.568 35.1727 287.699 34.6218C289.284 33.8309 291.052 33.4441 292.988 33.4441Z" stroke="white" stroke-width="1.6"/>
<path d="M261.433 34.4314V57.6443H268.896V65.1707H242.932V57.6443H251.163V41.9578H243.206V34.4314H261.433ZM255.42 19.1765C257.099 19.1765 258.533 19.7147 259.65 20.8259C260.768 21.9001 261.323 23.2654 261.323 24.8601C261.323 26.4848 260.773 27.8705 259.651 28.949C258.531 30.0267 257.096 30.5437 255.42 30.5437C253.743 30.5437 252.297 30.0272 251.145 28.9597L251.123 28.9382C250.016 27.8315 249.462 26.4545 249.462 24.8601C249.462 23.2654 250.017 21.9001 251.134 20.8259C252.285 19.7175 253.735 19.1765 255.42 19.1765Z" stroke="white" stroke-width="1.6"/>
<path d="M236.615 30.3298L238.591 36.696L238.809 37.3992L238.126 37.6746C236.647 38.2719 234.71 38.6365 232.341 38.7937C233.11 39.3388 233.758 39.939 234.275 40.5984H234.276C235.367 41.9402 235.883 43.6308 235.883 45.6033C235.883 47.6251 235.325 49.4658 234.207 51.1023L234.201 51.1101C233.083 52.7076 231.517 53.9459 229.54 54.8376C227.553 55.734 225.278 56.1707 222.735 56.1707C221.605 56.1706 220.529 56.076 219.508 55.8884C219.447 55.9479 219.388 56.0252 219.331 56.1248C219.244 56.3021 219.2 56.4867 219.2 56.6882C219.2 56.9926 219.294 57.1919 219.476 57.3542C219.572 57.4097 219.766 57.4867 220.112 57.5457C220.482 57.6087 220.969 57.6433 221.583 57.6433H226.412C228.696 57.6433 230.747 58.0243 232.548 58.8074C234.341 59.5871 235.764 60.6777 236.776 62.0945C237.79 63.5138 238.297 65.1221 238.297 66.8943C238.297 70.2143 236.813 72.8203 233.928 74.6423L233.929 74.6433C231.107 76.4852 227.066 77.3523 221.912 77.3523C218.252 77.3523 215.294 76.9661 213.083 76.1531V76.1541C210.926 75.3836 209.303 74.2498 208.337 72.6951L208.329 72.6814C207.432 71.1722 207.01 69.319 207.01 67.1687V66.3689H216.292V67.1687C216.292 67.9887 216.44 68.5253 216.649 68.8601C216.866 69.1522 217.318 69.4599 218.17 69.6892C219.018 69.9175 220.324 70.0456 222.132 70.0457C223.386 70.0457 224.418 69.9734 225.238 69.8367C226.068 69.6984 226.63 69.5018 226.98 69.2859L226.992 69.2791L227.131 69.1921C227.8 68.7509 228.082 68.2021 228.082 67.4978C228.082 66.8838 227.844 66.4028 227.304 65.9978H227.303C226.805 65.6346 225.966 65.3894 224.656 65.3894H220.047C216.977 65.3894 214.531 64.8509 212.835 63.6511L212.824 63.6443C211.143 62.4144 210.247 60.7951 210.247 58.8279C210.247 57.59 210.559 56.4279 211.178 55.3552L211.182 55.3474C211.625 54.5984 212.184 53.9394 212.848 53.366C211.455 52.4682 210.377 51.433 209.651 50.2458L209.646 50.2371C208.754 48.7363 208.326 46.9604 208.326 44.9441C208.326 42.6431 208.915 40.5982 210.112 38.8416C211.303 37.096 212.962 35.7794 215.058 34.8845L215.453 34.7156C217.447 33.8989 219.678 33.4988 222.132 33.4988H222.152C225.022 33.5705 227.419 33.2995 229.362 32.7097C231.34 32.0728 233.365 31.1331 235.438 29.8826L236.312 29.3542L236.615 30.3298ZM222.352 40.7507C221.15 40.7507 220.284 41.12 219.657 41.7986C219.052 42.4928 218.707 43.4745 218.707 44.8347C218.707 46.2731 219.072 47.2822 219.703 47.9705C220.335 48.6598 221.188 49.0281 222.352 49.0281C223.609 49.0281 224.465 48.665 225.045 48.0349C225.637 47.3556 225.996 46.2955 225.996 44.7253C225.996 43.2436 225.65 42.2807 225.1 41.6892C224.559 41.1086 223.694 40.7507 222.352 40.7507Z" stroke="white" stroke-width="1.6"/>
<path d="M195.625 34.4314V57.6443H203.089V65.1707H177.124V57.6443H185.355V41.9578H177.398V34.4314H195.625ZM189.612 19.1765C191.292 19.1765 192.725 19.7147 193.843 20.8259C194.96 21.9001 195.516 23.2654 195.516 24.8601C195.516 26.4848 194.965 27.8705 193.844 28.949C192.723 30.0267 191.288 30.5437 189.612 30.5437C187.936 30.5437 186.49 30.0272 185.337 28.9597L185.315 28.9382C184.209 27.8315 183.654 26.4545 183.654 24.8601C183.654 23.2654 184.209 21.9001 185.326 20.8259C186.478 19.7175 187.927 19.1765 189.612 19.1765Z" stroke="white" stroke-width="1.6"/>
<path d="M166.367 33.5537C168.213 33.5537 169.925 33.8611 171.493 34.4883L172.07 34.7197L171.989 35.335L170.398 47.5176L170.307 48.2139H163.317V43.0811C162.286 43.46 161.329 44.1502 160.446 45.1885C159.306 46.53 158.395 48.2391 157.729 50.3379V57.7539H163.49V65.1699H143.617V57.7539H147.458V41.793H143.617V34.4316H155.532L155.677 35.0479L156.704 39.4131C157.618 37.8143 158.696 36.5298 159.951 35.5859C161.722 34.2179 163.877 33.5537 166.367 33.5537Z" stroke="white" stroke-width="1.6"/>
<path d="M123.86 24.5542C129.016 24.5542 133.04 26.4215 135.808 30.2017L136.06 30.5522C138.624 34.2177 139.861 39.1718 139.861 45.3286C139.861 51.6159 138.521 56.685 135.754 60.4517L135.755 60.4526C132.988 64.2329 128.983 66.103 123.86 66.103C118.706 66.103 114.682 64.2558 111.913 60.5112L111.911 60.5073C109.178 56.7746 107.86 51.6848 107.86 45.3286C107.86 39.0431 109.179 33.9906 111.911 30.2593V30.2583C114.712 26.4449 118.733 24.5543 123.86 24.5542ZM123.86 32.7388C122.939 32.7388 122.188 32.9671 121.571 33.3931C120.949 33.8222 120.411 34.489 119.981 35.4487C119.137 37.4137 118.679 40.674 118.679 45.3286C118.679 49.9833 119.137 53.2436 119.981 55.2085L120.147 55.5542C120.547 56.3309 121.027 56.8886 121.571 57.2642C122.188 57.6901 122.939 57.9184 123.86 57.9185C124.803 57.9185 125.563 57.6886 126.177 57.2642C126.795 56.8373 127.323 56.1745 127.735 55.2192C128.581 53.2554 129.042 49.9913 129.042 45.3286C129.042 40.6673 128.563 37.4082 127.685 35.4487L127.68 35.439V35.438C127.267 34.4802 126.743 33.8166 126.132 33.3901C125.526 32.9668 124.782 32.7388 123.86 32.7388Z" stroke="white" stroke-width="1.6"/>
<path d="M55.7646 14.7427C78.3239 15.7911 96.2175 33.4883 96.2178 55.1069C96.2178 76.726 78.3238 94.4282 55.7646 95.4712V70.3315C63.6382 69.3537 69.7686 62.9411 69.7686 55.1128C69.7683 47.284 63.6319 40.878 55.7646 39.895V14.7427Z" stroke="white" stroke-width="1.6"/>
<path d="M41.2529 26.0918C33.383 27.0794 27.2491 33.5159 27.249 41.375C27.249 49.2334 33.3768 55.6757 41.2529 56.6582V81.917C18.6972 80.8691 0.799805 63.0898 0.799805 41.3691C0.799871 19.6488 18.6969 1.87963 41.2529 0.832031V26.0918Z" stroke="white" stroke-width="1.6"/>
<path d="M54.1646 14.1104V38.6357L42.853 26.5498V2.02441L54.1646 14.1104Z" stroke="white" stroke-width="1.6"/>
<path d="M54.1646 69.9912V94.291L42.853 82.3105V58.0107L54.1646 69.9912Z" stroke="white" stroke-width="1.6"/>
</svg>
